<?xml version="1.0" encoding="UTF-8" standalone="no"?>
<!-- Created with Inkscape (http://www.inkscape.org/) -->

<svg
   id="svg2"
   version="1.1"
   inkscape:version="1.3.1 (91b66b0783, 2023-11-16)"
   xml:space="preserve"
   width="215.93945"
   height="323.90762"
   viewBox="0 0 215.93945 323.90761"
   sodipodi:docname="LogoLAC.svg"
   inkscape:export-filename="LogoLAC.png"
   inkscape:export-xdpi="300"
   inkscape:export-ydpi="300"
   xmlns:inkscape="http://www.inkscape.org/namespaces/inkscape"
   xmlns:sodipodi="http://sodipodi.sourceforge.net/DTD/sodipodi-0.dtd"
   xmlns:xlink="http://www.w3.org/1999/xlink"
   xmlns="http://www.w3.org/2000/svg"
   xmlns:svg="http://www.w3.org/2000/svg"
   xmlns:rdf="http://www.w3.org/1999/02/22-rdf-syntax-ns#"
   xmlns:cc="http://creativecommons.org/ns#"
   xmlns:dc="http://purl.org/dc/elements/1.1/"><sodipodi:namedview
     pagecolor="#ffffff"
     bordercolor="#666666"
     borderopacity="1"
     objecttolerance="10"
     gridtolerance="10"
     guidetolerance="10"
     inkscape:pageopacity="0"
     inkscape:pageshadow="2"
     inkscape:window-width="1920"
     inkscape:window-height="995"
     id="namedview4"
     showgrid="false"
     fit-margin-top="0"
     fit-margin-left="0"
     fit-margin-right="0"
     fit-margin-bottom="0"
     inkscape:zoom="1.4243959"
     inkscape:cx="311.36006"
     inkscape:cy="176.91711"
     inkscape:window-x="-9"
     inkscape:window-y="-9"
     inkscape:window-maximized="1"
     inkscape:current-layer="svg2"
     inkscape:showpageshadow="2"
     inkscape:pagecheckerboard="0"
     inkscape:deskcolor="#d1d1d1" /><metadata
     id="metadata8"><rdf:RDF><cc:Work
         rdf:about=""><dc:format>image/svg+xml</dc:format><dc:type
           rdf:resource="http://purl.org/dc/dcmitype/StillImage" /></cc:Work></rdf:RDF></metadata><defs
     id="defs6"><clipPath
       clipPathUnits="userSpaceOnUse"
       id="clipPath1"><g
         id="g2"
         style="stroke-width:1"
         transform="translate(-172.1982,-291.3818)"><path
           d="M 0,841.89 H 595.28 V 0 H 0 Z"
           id="path1"
           inkscape:connector-curvature="0"
           style="stroke-width:1" /></g></clipPath><clipPath
       clipPathUnits="userSpaceOnUse"
       id="clipPath2"><g
         id="g3"
         style="stroke-width:1"
         transform="translate(-96.3818,-291.3818)"><path
           d="M 0,841.89 H 595.28 V 0 H 0 Z"
           id="path2"
           inkscape:connector-curvature="0"
           style="stroke-width:1" /></g></clipPath><clipPath
       clipPathUnits="userSpaceOnUse"
       id="clipPath3"><g
         id="g4"
         style="stroke-width:1"
         transform="translate(-134.292,-293.5635)"><path
           d="M 0,841.89 H 595.28 V 0 H 0 Z"
           id="path3"
           inkscape:connector-curvature="0"
           style="stroke-width:1" /></g></clipPath><clipPath
       clipPathUnits="userSpaceOnUse"
       id="clipPath4"><g
         id="g5"
         style="stroke-width:1"
         transform="translate(-178.4541,-483.3984)"><path
           d="M 0,841.89 H 595.28 V 0 H 0 Z"
           id="path4"
           inkscape:connector-curvature="0"
           style="stroke-width:1" /></g></clipPath><clipPath
       clipPathUnits="userSpaceOnUse"
       id="clipPath5"><g
         id="g6"
         style="stroke-width:1"
         transform="translate(-167.1689,-484.8975)"><path
           d="M 0,841.89 H 595.28 V 0 H 0 Z"
           id="path5"
           inkscape:connector-curvature="0"
           style="stroke-width:1" /></g></clipPath><clipPath
       clipPathUnits="userSpaceOnUse"
       id="clipPath6"><g
         id="g7"
         style="stroke-width:1"
         transform="translate(-90.126,-483.3984)"><path
           d="M 0,841.89 H 595.28 V 0 H 0 Z"
           id="path6"
           inkscape:connector-curvature="0"
           style="stroke-width:1" /></g></clipPath><clipPath
       clipPathUnits="userSpaceOnUse"
       id="clipPath7"><g
         id="g8"
         style="stroke-width:1"
         transform="translate(-134.29,-485.4678)"><path
           d="M 0,841.89 H 595.28 V 0 H 0 Z"
           id="path7"
           inkscape:connector-curvature="0"
           style="stroke-width:1" /></g></clipPath><clipPath
       clipPathUnits="userSpaceOnUse"
       id="clipPath8"><g
         id="g9"
         style="stroke-width:1"
         transform="translate(-101.4131,-484.8975)"><path
           d="M 0,841.89 H 595.28 V 0 H 0 Z"
           id="path8"
           inkscape:connector-curvature="0"
           style="stroke-width:1" /></g></clipPath><clipPath
       clipPathUnits="userSpaceOnUse"
       id="clipPath9"><g
         id="g11"
         style="stroke-width:1"
         transform="translate(-99.8271,-418.04)"><path
           d="M 0,841.89 H 595.28 V 0 H 0 Z"
           id="path9"
           inkscape:connector-curvature="0"
           style="stroke-width:1" /></g></clipPath><clipPath
       clipPathUnits="userSpaceOnUse"
       id="clipPath11"><g
         id="g12"
         style="stroke-width:1"
         transform="translate(-119.8193,-426.2324)"><path
           d="M 0,841.89 H 595.28 V 0 H 0 Z"
           id="path11"
           inkscape:connector-curvature="0"
           style="stroke-width:1" /></g></clipPath><clipPath
       clipPathUnits="userSpaceOnUse"
       id="clipPath12"><g
         id="g13"
         style="stroke-width:1"
         transform="translate(-128.0811,-440.7715)"><path
           d="M 0,841.89 H 595.28 V 0 H 0 Z"
           id="path12"
           inkscape:connector-curvature="0"
           style="stroke-width:1" /></g></clipPath><clipPath
       clipPathUnits="userSpaceOnUse"
       id="clipPath13"><g
         id="g14"
         style="stroke-width:1"
         transform="translate(-177.8857,-345.5693)"><path
           d="M 0,841.89 H 595.28 V 0 H 0 Z"
           id="path13"
           inkscape:connector-curvature="0"
           style="stroke-width:1" /></g></clipPath><clipPath
       clipPathUnits="userSpaceOnUse"
       id="clipPath14"><g
         id="g15"
         style="stroke-width:1"
         transform="translate(-100.9248,-438.7734)"><path
           d="M 0,841.89 H 595.28 V 0 H 0 Z"
           id="path14"
           inkscape:connector-curvature="0"
           style="stroke-width:1" /></g></clipPath><clipPath
       clipPathUnits="userSpaceOnUse"
       id="clipPath15"><g
         id="g16"
         style="stroke-width:1"
         transform="translate(-99.2432,-390.4541)"><path
           d="M 0,841.89 H 595.28 V 0 H 0 Z"
           id="path15"
           inkscape:connector-curvature="0"
           style="stroke-width:1" /></g></clipPath><clipPath
       clipPathUnits="userSpaceOnUse"
       id="clipPath16"><g
         id="g17"
         style="stroke-width:1"
         transform="translate(-95.0205,-346.3877)"><path
           d="M 0,841.89 H 595.28 V 0 H 0 Z"
           id="path16"
           inkscape:connector-curvature="0"
           style="stroke-width:1" /></g></clipPath><clipPath
       clipPathUnits="userSpaceOnUse"
       id="clipPath17"><g
         id="g18"
         style="stroke-width:1"
         transform="translate(-85.9717,-411.999)"><path
           d="M 0,841.89 H 595.28 V 0 H 0 Z"
           id="path17"
           inkscape:connector-curvature="0"
           style="stroke-width:1" /></g></clipPath><clipPath
       clipPathUnits="userSpaceOnUse"
       id="clipPath18"><g
         id="g19"
         style="stroke-width:1"
         transform="translate(-96.1396,-416.4131)"><path
           d="M 0,841.89 H 595.28 V 0 H 0 Z"
           id="path19"
           inkscape:connector-curvature="0"
           style="stroke-width:1" /></g></clipPath><clipPath
       clipPathUnits="userSpaceOnUse"
       id="clipPath19"><g
         id="g21"
         style="stroke-width:1"
         transform="translate(-85.5771,-444.8164)"><path
           d="M 0,841.89 H 595.28 V 0 H 0 Z"
           id="path20"
           inkscape:connector-curvature="0"
           style="stroke-width:1" /></g></clipPath><clipPath
       clipPathUnits="userSpaceOnUse"
       id="clipPath21"><g
         id="g22"
         style="stroke-width:1"
         transform="translate(-145.6201,-486.5684)"><path
           d="M 0,841.89 H 595.28 V 0 H 0 Z"
           id="path21"
           inkscape:connector-curvature="0"
           style="stroke-width:1" /></g></clipPath><clipPath
       clipPathUnits="userSpaceOnUse"
       id="clipPath22"><g
         id="g23"
         style="stroke-width:1"
         transform="translate(-134.29,-470.3135)"><path
           d="M 0,841.89 H 595.28 V 0 H 0 Z"
           id="path23"
           inkscape:connector-curvature="0"
           style="stroke-width:1" /></g></clipPath><clipPath
       clipPathUnits="userSpaceOnUse"
       id="clipPath23"><g
         id="g25"
         style="stroke-width:1"
         transform="translate(-178.1611,-498.2061)"><path
           d="M 0,841.89 H 595.28 V 0 H 0 Z"
           id="path24"
           inkscape:connector-curvature="0"
           style="stroke-width:1" /></g></clipPath><clipPath
       clipPathUnits="userSpaceOnUse"
       id="clipPath25"><g
         id="g26"
         style="stroke-width:1"
         transform="translate(-90.3291,-498.2061)"><path
           d="M 0,841.89 H 595.28 V 0 H 0 Z"
           id="path25"
           inkscape:connector-curvature="0"
           style="stroke-width:1" /></g></clipPath><clipPath
       clipPathUnits="userSpaceOnUse"
       id="clipPath26"><g
         id="g27"
         style="stroke-width:1"
         transform="translate(-134.2451,-500.2539)"><path
           d="M 0,841.89 H 595.28 V 0 H 0 Z"
           id="path27"
           inkscape:connector-curvature="0"
           style="stroke-width:1" /></g></clipPath><clipPath
       clipPathUnits="userSpaceOnUse"
       id="clipPath29"><g
         id="g30"
         style="stroke-width:1"
         transform="translate(-529.6006,-359.2002)"><path
           d="M 0,841.89 H 595.28 V 0 H 0 Z"
           id="path29"
           inkscape:connector-curvature="0"
           style="stroke-width:1" /></g></clipPath><clipPath
       clipPathUnits="userSpaceOnUse"
       id="clipPath31"><g
         id="g34"
         style="stroke-width:1"><g
           id="g33"
           style="stroke-width:1"><path
             d="M 0,841.89 H 595.28 V 0 H 0 Z"
             id="path31"
             inkscape:connector-curvature="0"
             style="stroke-width:1" /></g></g></clipPath><clipPath
       clipPathUnits="userSpaceOnUse"
       id="clipPath142"><g
         id="g144"
         style="stroke-width:1"><g
           id="g143"
           style="stroke-width:1"
           transform="translate(224)"><path
             d="M 0,841.89 H 595.28 V 0 H 0 Z"
             id="path142"
             inkscape:connector-curvature="0"
             style="stroke-width:1" /></g></g></clipPath><clipPath
       clipPathUnits="userSpaceOnUse"
       id="clipPath146"><g
         id="g148"
         style="stroke-width:1"><g
           id="g147"
           style="stroke-width:1"
           transform="translate(224)"><path
             d="M 0,841.89 H 595.28 V 0 H 0 Z"
             id="path146"
             inkscape:connector-curvature="0"
             style="stroke-width:1" /></g></g></clipPath><clipPath
       clipPathUnits="userSpaceOnUse"
       id="clipPath150"><g
         id="g152"
         style="stroke-width:1"><g
           id="g151"
           style="stroke-width:1"
           transform="translate(224)"><path
             d="M 0,841.89 H 595.28 V 0 H 0 Z"
             id="path150"
             inkscape:connector-curvature="0"
             style="stroke-width:1" /></g></g></clipPath><clipPath
       clipPathUnits="userSpaceOnUse"
       id="clipPath154"><g
         id="g156"
         style="stroke-width:1"><g
           id="g155"
           style="stroke-width:1"
           transform="translate(224)"><path
             d="M 0,841.89 H 595.28 V 0 H 0 Z"
             id="path154"
             inkscape:connector-curvature="0"
             style="stroke-width:1" /></g></g></clipPath><clipPath
       clipPathUnits="userSpaceOnUse"
       id="clipPath158"><g
         id="g160"
         style="stroke-width:1"><g
           id="g159"
           style="stroke-width:1"
           transform="translate(224)"><path
             d="M 0,841.89 H 595.28 V 0 H 0 Z"
             id="path158"
             inkscape:connector-curvature="0"
             style="stroke-width:1" /></g></g></clipPath><clipPath
       clipPathUnits="userSpaceOnUse"
       id="clipPath162"><g
         id="g164"
         style="stroke-width:1"><g
           id="g163"
           style="stroke-width:1"
           transform="translate(224)"><path
             d="M 0,841.89 H 595.28 V 0 H 0 Z"
             id="path162"
             inkscape:connector-curvature="0"
             style="stroke-width:1" /></g></g></clipPath></defs><path
     d="m 36.32422,232.0487 0.14453,0.0195 5.59375,-0.55859 1.96484,-0.69922 1.28516,3.09961 c 1.54183,-0.57985 3.33535,-0.46565 4.92578,-0.0937 2.58978,0.11404 5.08773,-0.9296 7.63281,-1.24024 a 71.188296,71.188296 0 0 1 -6.76172,-29.64062 71.188296,71.188296 0 0 1 8.49219,-33.35547 c -0.72453,-0.0281 -1.44928,-0.0549 -2.17383,-0.082 1.94913,-3.80782 3.73397,-8.02592 7.34571,-10.57618 0.68807,-0.45643 1.46412,-0.65793 2.24804,-0.68359 a 71.188296,71.188296 0 0 1 15.07618,-13.72851 c 0.0663,-0.90275 0.087,-1.80485 -0.15235,-2.69922 -0.48015,-0.9762 0.77252,-0.94686 1.38086,-1.29102 6.02783,-2.30057 12.15006,-4.71828 18.58399,-5.54101 a 71.188296,71.188296 0 0 1 20.38867,-3.23243 71.188296,71.188296 0 0 1 36.16797,9.91407 c 0.96581,-0.28524 1.94286,-0.52866 2.93164,-0.67969 4.74663,-0.8503 9.8619,-0.18593 13.95312,2.4707 4.41261,2.76305 7.59346,7.33704 8.72852,12.41211 1.05717,4.19968 1.02255,8.54868 0.63281,12.83985 a 71.188296,71.188296 0 0 1 2.14648,4.26563 c 0.34073,-7.04523 0.58521,-14.10226 0.80079,-21.16407 l -2.08594,-2.7168 1.58984,-1.35156 0.64649,-0.89844 c 0.14017,-4.86044 0.28516,-9.72065 0.42773,-14.58203 l -6.17578,2.53125 -4.56641,3.2793 -1.35351,1.58985 -6.65821,-5.10938 1.18555,-1.72071 1.98633,-5.2578 1.06055,-8.28906 -4.67969,-2.70117 -6.64844,5.0625 -3.56055,4.3496 -0.89648,1.88671 -7.75586,-3.21483 0.69922,-1.96484 0.55859,-5.59375 -1.11914,-8.28125 -5.2207,-1.39844 -5.11133,6.61133 -2.31445,5.12304 -0.37695,2.05469 -8.32422,-1.09766 0.16992,-2.08008 -0.91016,-5.54688 L 125,104.77721 h -5.4043 l -3.22461,7.71094 -0.9082,5.54688 0.16602,2.08007 -8.32422,1.09766 -0.375,-2.05469 -2.3125,-5.12304 -5.11328,-6.61133 -5.22071,1.39844 -1.11914,8.28125 0.55664,5.59375 0.70313,1.96484 -7.75977,3.21484 -0.89453,-1.88672 -3.55859,-4.3496 -6.65039,-5.0625 -4.67969,2.70117 1.0625,8.28907 1.98437,5.25781 1.1875,1.72069 -6.66211,5.10938 -1.35156,-1.58984 -4.56445,-3.2793 -7.73438,-3.16992 -3.82031,3.82031 3.16992,7.73437 3.2793,4.56446 1.58984,1.35156 -5.10937,6.66212 -1.7207,-1.1875 -5.25782,-1.98633 -8.28906,-1.06056 -2.70117,4.68165 3.63476,4.77343 c 1.30011,0.1911 2.58904,0.7569 3.70118,1.37891 2.80007,1.62831 5.17499,3.85954 7.71093,5.85156 -1.48208,0.69384 -2.96248,1.38988 -4.44531,2.08203 1.78028,0.80494 3.52754,1.68233 5.29492,2.51563 -1.54241,1.09106 -3.07124,2.20085 -4.62109,3.28125 1.02402,0.24551 2.04651,0.49187 3.07031,0.73828 -2.2799,2.88438 -4.40779,6.19107 -7.80664,7.86523 -0.60851,0.23808 -1.26778,0.35219 -1.91992,0.28711 -2.6746,-0.27077 -4.40522,-3.05757 -4.37891,-5.58398 -1.78239,-1.10139 -2.67159,-3.12206 -2.73632,-5.17969 l -3.57618,0.48438 c 0.13555,2.7275 0.29073,5.45373 0.45508,8.18359 l 3.07422,2.37695 5.12305,2.3125 2.05273,0.37696 -1.0957,8.32421 -2.08008,-0.16992 -5.54687,0.91016 -0.47657,0.19922 c 0.34009,3.93257 0.73944,7.8571 1.19336,11.77539 l 4.83008,0.79101 2.08008,-0.16992 1.0957,8.32422 -2.05273,0.37695 -4.44727,2.00782 c 0.61654,3.92128 1.36562,7.84214 2.24805,11.73828 z"
     style="fill:#373535;fill-opacity:1"
     id="path181" /><g
     id="g10"
     inkscape:groupmode="layer"
     inkscape:label="LogoUFPE-Versoes"
     transform="matrix(1.25,0,0,-1.25,-59.5495,688.13487)"><path
       id="path26"
       clip-path="url(#clipPath31)"
       style="fill:#a3333b;fill-opacity:1;fill-rule:evenodd;stroke:none"
       d="m 128.41929,344.36571 c -24.08926,-0.29428 -49.046676,-2.80007 -73.17344,-8.26094 l 2.664063,-15.40625 c -3.295994,-0.602 -6.754321,-1.3005 -10.270313,-2.1125 l 4.446875,-21.49375 c 5.825988,1.534 23.757387,4.7335 30.134375,5.0375 l -21.8375,5.91719 v 0.24219 c 50.8379,11.44496 104.61271,9.14923 147.26563,0.13125 v -0.37344 l -21.69688,-5.92188 c 6.49698,-0.346 24.20777,-3.50881 29.99375,-5.03281 l 4.44531,21.49375 c -3.29298,0.761 -6.53931,1.42188 -9.64531,1.99688 l 2.68438,15.52187 c -24.50077,5.36118 -54.03905,8.6393 -85.01094,8.26094 z M 68.503663,317.79696 H 68.9021 l -0.360938,-0.0656 z" /><g
       id="g28"
       transform="translate(134.2451,500.2539)"
       clip-path="url(#clipPath26)"><path
         d="m 0,0 c -3.918,-0.027 -16.395,2.261 -16.461,10.521 -0.025,3.141 2.606,6.091 4.172,8.797 9.654,12.937 15.102,18.867 8.269,30.936 2.125,-0.371 5.366,-3.343 7.041,-5.519 C 5.984,39.642 6.264,34.336 4.363,28.445 2.361,23.542 -4.191,17.416 -2.133,11.791 -0.209,6.534 6.512,6.116 4.326,11.64 c -1.127,2.85 -2.521,3.131 -1.64,6.423 1.418,5.301 8.246,12.013 5.253,18.395 6.885,-3.926 2.661,-14.629 3.309,-16.497 0.363,-1.553 5.68,-6.275 5.283,-9.477 C 15.559,2.637 6.443,-0.358 0,0"
         style="fill:#a3333b;fill-opacity:1;fill-rule:evenodd;stroke:none"
         id="path30"
         inkscape:connector-curvature="0" /></g><g
       id="g32"
       transform="translate(90.3291,498.2061)"
       clip-path="url(#clipPath25)"><path
         d="m 0,0 c -3.916,-0.026 -16.395,2.261 -16.461,10.521 -0.025,3.141 2.607,6.091 4.172,8.797 9.654,12.938 15.102,18.867 8.271,30.937 2.123,-0.372 5.364,-3.343 7.041,-5.519 C 5.984,39.642 6.264,34.336 4.365,28.445 2.363,23.542 -4.189,17.416 -2.131,11.791 -0.207,6.534 6.512,6.117 4.328,11.64 3.199,14.491 1.805,14.771 2.686,18.063 4.104,23.364 10.932,30.076 7.941,36.458 14.824,32.533 10.6,21.829 11.25,19.962 11.611,18.409 16.928,13.687 16.531,10.484 15.561,2.638 6.443,-0.358 0,0"
         style="fill:#a3333b;fill-opacity:1;fill-rule:evenodd;stroke:none"
         id="path34"
         inkscape:connector-curvature="0" /></g><g
       id="g36"
       transform="translate(178.1611,498.2061)"
       clip-path="url(#clipPath23)"><path
         d="m 0,0 c -3.918,-0.026 -16.396,2.261 -16.463,10.521 -0.023,3.141 2.608,6.091 4.172,8.797 9.654,12.938 15.104,18.867 8.271,30.937 2.124,-0.372 5.364,-3.343 7.041,-5.519 C 5.982,39.642 6.262,34.336 4.363,28.445 2.361,23.542 -4.191,17.416 -2.133,11.791 -0.209,6.534 6.51,6.117 4.326,11.64 c -1.127,2.851 -2.521,3.131 -1.642,6.423 1.418,5.301 8.246,12.013 5.255,18.395 6.883,-3.925 2.659,-14.629 3.309,-16.496 0.361,-1.553 5.678,-6.275 5.281,-9.478 C 15.559,2.638 6.443,-0.358 0,0"
         style="fill:#a3333b;fill-opacity:1;fill-rule:evenodd;stroke:none"
         id="path38"
         inkscape:connector-curvature="0" /></g><g
       id="g40"
       transform="translate(134.29,470.3135)"
       clip-path="url(#clipPath22)"><path
         d="m 0,0 c -21.719,0 -45.125,-1.75 -66.244,-6.696 1.849,-33.643 0.043,-101.288 15.404,-119.427 -1.912,-0.313 -3.824,-0.645 -5.736,-0.996 -11.09,18.334 -12.344,64.076 -13.322,99.305 -0.254,9.301 -0.489,17.872 -0.85,25.009 l -0.043,0.056 0.043,0.013 C -47.674,2.66 -23.645,4.685 0,4.685 23.645,4.684 47.668,2.666 70.736,-2.736 l 0.055,-0.013 -0.004,-0.056 c -0.391,-7.137 -0.627,-15.708 -0.885,-25.009 -0.974,-35.229 -2.24,-80.971 -13.291,-99.305 -1.933,0.351 -3.859,0.683 -5.781,0.996 15.383,18.139 13.566,85.784 15.412,119.427 C 45.119,-1.75 21.719,0 0,0"
         style="fill:#373535;fill-opacity:1;fill-rule:evenodd;stroke:none"
         id="path42"
         inkscape:connector-curvature="0" /></g><g
       id="g44"
       transform="translate(145.6201,486.5684)"
       clip-path="url(#clipPath21)"><path
         d="m 0,0 c -3.305,0.834 -7.381,1.193 -11.33,1.193 -3.949,0 -8.025,-0.359 -11.33,-1.193 -4.752,3.073 -5.18,8.688 -0.1,10.914 3.735,0.629 7.696,1.073 11.43,1.073 3.736,0 7.697,-0.444 11.43,-1.073 C 5.18,8.688 4.754,3.073 0,0"
         style="fill:#373535;fill-opacity:1;fill-rule:evenodd;stroke:none"
         id="path46"
         inkscape:connector-curvature="0" /></g><g
       id="g52"
       transform="translate(96.1396,416.4131)"
       clip-path="url(#clipPath18)"><path
         d="M 0,0 C 0.963,1.967 2.188,4.038 3.896,5.406 6.75,7.692 10.283,1.864 6.713,0.553 4.65,-0.207 2.236,-0.1 0,0"
         style="fill:#373535;fill-opacity:1;fill-rule:evenodd;stroke:none"
         id="path54"
         inkscape:connector-curvature="0" /></g><g
       id="g56"
       transform="translate(85.9717,411.999)"
       clip-path="url(#clipPath17)"><path
         d="m 0,0 c -1.684,0.832 -3.697,1.723 -5.523,2.281 1.695,0.461 3.394,1.283 4.994,2.035 -1.826,1.502 -3.791,3.152 -5.977,3.799 -3.24,0.96 -4.043,-4.332 -1.848,-5.746 -2.505,-1.092 -2.085,-6.199 0.854,-6.299 -0.973,-1.568 0.668,-4.826 2.744,-3.732 1.553,0.818 3.236,2.875 3.881,3.74 -1.291,0.318 -2.691,0.652 -4.018,0.776 C -3.205,-2.281 -1.518,-1.098 0,0"
         style="fill:#373535;fill-opacity:1;fill-rule:evenodd;stroke:none"
         id="path58"
         inkscape:connector-curvature="0" /></g><g
       id="g60"
       transform="translate(95.0205,346.3877)"
       clip-path="url(#clipPath16)"><path
         d="m 0,0 c 8.727,1.531 12.49,3.041 17.855,5.408 5.733,2.153 10.502,4.764 16.209,8.307 -5.261,0.342 -9.644,2.365 -13.033,4.92 -4.447,3.355 -7.148,7.605 -7.734,10.207 -0.512,-2.926 -1.496,-5.42 -3.24,-7.885 -1.903,-2.691 -5.393,-8.225 -8.809,-4.693 -1.613,1.093 -6.365,-1.334 -9.084,-0.711 -5.385,1.236 -5.291,-4.432 -2.256,-5.955 -2.531,-1.744 -1.459,-6.262 2.026,-6.655 -1.112,-1.759 1.418,-4.699 4.248,-3.67 C -2.512,-0.25 -1.475,-0.287 0,0"
         style="fill:#373535;fill-opacity:1;fill-rule:evenodd;stroke:none"
         id="path62"
         inkscape:connector-curvature="0" /></g><g
       id="g64"
       transform="translate(99.2432,390.4541)"
       clip-path="url(#clipPath15)"><path
         d="m 0,0 c 1.078,-0.627 2.631,-1.514 3.531,-2.201 0.096,-0.072 0.178,-0.135 0.248,-0.19 0.514,1.586 1.145,2.871 1.867,3.922 0.739,1.071 1.575,1.897 2.479,2.545 0.271,1.57 0.658,2.705 0.932,3.82 0.252,1.034 1.672,3.325 2.752,4.469 -0.473,0.229 -1.438,0.281 -2.151,0.385 C 7.01,13.139 3.127,14.201 1.527,15.238 1.305,12.672 1.035,10.162 0.768,7.65 0.496,5.127 0.225,2.602 0,0"
         style="fill:#373535;fill-opacity:1;fill-rule:evenodd;stroke:none"
         id="path66"
         inkscape:connector-curvature="0" /></g><g
       id="g72"
       transform="translate(177.8857,345.5693)"
       clip-path="url(#clipPath13)"><path
         d="m 0,0 c 2.467,1.537 4.584,3.67 6.303,6.418 2.314,3.656 3.633,7.891 3.666,12.533 0.027,3.613 -0.492,7.475 -0.985,11.506 -0.619,5.09 -10.859,29.67 -13.172,34.367 -1.822,3.705 -5.07,10.078 -4.824,12.852 0.157,6.004 5.041,9.602 11.028,9.554 3.367,-0.028 7.099,-2.445 8.986,-5.507 v -0.001 c 1.4,-2.511 1.6,-5.739 0.902,-9.703 -0.002,-0.011 -0.023,-0.052 -0.031,-0.06 C 5.711,66.111 6.936,61.943 9.078,54.654 c 1.299,-4.418 2.934,-9.976 3.477,-17.732 0.648,6.389 1.23,12.599 1.761,18.787 0.571,6.635 1.327,9.891 1.801,16.662 v 0.003 -0.003 0.003 c 0.199,4.7 -0.568,9.435 -2.98,12.721 -2.627,3.578 -6.631,5.98 -11.762,5.72 C -10.549,90.212 -16.355,79.933 -11.186,69.912 -7.275,62.328 -2.244,49.764 0.877,41.76 4.008,33.729 5.459,26.908 2.664,24.141 2.619,24.094 2.529,24.102 2.492,24.154 c -2.939,4.102 -7.197,5.575 -11.603,7.1 -5.192,1.795 -10.883,4.244 -14.621,10.535 -0.791,-1.627 -2.184,-3.068 -3.725,-4.236 -2.107,-1.594 -6.086,-3.684 -7.606,-4.022 -0.087,-0.019 -0.164,0.071 -0.126,0.149 0.169,0.363 0.341,0.738 0.46,1.226 0.11,0.442 0.18,0.979 0.176,1.686 -1.408,-1.221 -1.986,-1.362 -4.316,-2.596 -5.486,-2.906 -11.311,-5.578 -10.758,-11.504 0.629,-6.726 8.283,-8.521 16.711,-9.041 4.893,-0.301 9.777,-0.613 13.686,-2.154 0.029,0.701 0.507,2.021 1.187,3.199 0.5,0.863 1.197,1.654 2.131,2.08 0.09,0.041 0.193,-0.06 0.148,-0.146 -0.925,-1.762 -1.343,-4.938 -1.306,-6.526 C -16.875,1.498 -6.152,0.697 0,0"
         style="fill:#373535;fill-opacity:1;fill-rule:evenodd;stroke:none"
         id="path74"
         inkscape:connector-curvature="0" /></g><g
       id="g76"
       transform="translate(128.0811,440.7715)"
       clip-path="url(#clipPath12)"><path
         d="m 0,0 c -4.389,-0.768 -9.168,-2.612 -12.547,-3.916 -0.357,-0.138 -0.517,-0.201 -0.654,-0.254 0.174,-0.958 0.072,-1.841 -0.028,-2.696 -0.193,-1.648 -0.375,-3.187 1.741,-4.835 1.127,2.2 2.824,2.423 4.482,1.71 1.117,-0.482 2.207,-1.409 3.068,-2.43 0.864,-1.021 1.502,-2.145 1.711,-3.014 0.204,-0.844 0.026,-1.486 -0.675,-1.687 -0.061,-0.041 -0.137,-0.075 -0.223,-0.101 -0.406,-0.119 -1.291,-0.131 -2.186,10e-4 -0.902,0.133 -1.837,0.417 -2.347,0.891 -0.176,0.162 -0.305,0.347 -0.373,0.556 -0.061,0.129 -0.114,0.229 -0.158,0.306 -0.04,-0.168 -0.063,-0.382 -0.075,-0.567 0.053,-0.881 0.235,-1.766 0.555,-2.538 0.262,-0.631 0.611,-1.184 1.057,-1.591 0.173,0.057 0.379,0.13 0.603,0.21 0.807,0.288 1.875,0.671 3.022,0.829 0,0 0.043,0.003 0.045,0.003 0.757,-10e-4 1.566,-0.026 2.386,-0.053 0.198,-0.006 0.397,-0.012 0.596,-0.018 v 15.061 h -0.002 c -0.012,0 -0.021,0 -0.033,-0.001 h -0.031 c -0.01,0 -0.022,-10e-4 -0.032,-10e-4 -0.009,0 -0.021,0 -0.031,-0.001 v 0.001 C -0.141,-4.136 -0.15,-4.136 -0.16,-4.136 h -0.031 -0.034 c -0.009,0 -0.021,-10e-4 -0.031,-10e-4 H -0.287 -0.318 -0.35 c -0.011,0 -0.021,0 -0.031,10e-4 h -0.031 -0.031 -0.032 c -0.009,0 -0.021,0.001 -0.031,0.001 h -0.031 c -0.01,0 -0.02,0 -0.031,10e-4 H -0.6 c -0.009,0 -0.019,0.001 -0.029,0.001 -0.012,0 -0.021,0 -0.031,0.001 -0.01,0 -0.022,0 -0.031,10e-4 h -0.03 -0.002 c -0.009,0.001 -0.019,0.001 -0.029,0.001 -0.01,0.001 -0.021,0.001 -0.031,0.002 -0.01,0 -0.02,0 -0.03,0.001 -0.009,0 -0.021,0 -0.031,10e-4 -0.01,0 -0.019,0 -0.029,0.001 -0.01,0 -0.022,0.001 -0.031,0.001 -0.01,0 -0.02,10e-4 -0.03,0.002 -0.009,0 -0.021,0 -0.029,10e-4 h -0.002 c -0.01,0 -0.019,0.001 -0.029,0.001 -0.01,0.001 -0.02,0.001 -0.029,0.002 -0.01,0 -0.02,0.001 -0.03,0.001 -0.01,0.001 -0.019,0.001 -0.031,0.002 -0.01,0 -0.018,0.001 -0.027,0.002 h -0.002 c -0.01,0 -0.02,0.001 -0.03,0.001 -0.009,0.001 -0.019,0.002 -0.029,0.002 -0.01,0.001 -0.019,0.001 -0.029,0.002 -0.01,0 -0.018,10e-4 -0.028,0.002 H -1.23 c -0.008,10e-4 -0.018,10e-4 -0.028,0.002 -0.01,0 -0.019,0 -0.029,0.001 -0.01,10e-4 -0.02,10e-4 -0.029,0.002 -0.01,0 -0.02,0.001 -0.028,0.002 -0.01,0.001 -0.019,0.001 -0.029,0.002 -0.01,0 -0.02,0.001 -0.029,0.002 -0.008,10e-4 -0.018,10e-4 -0.028,0.002 -0.009,0.001 -0.019,0.001 -0.029,0.002 -0.008,0.001 -0.018,0.001 -0.027,0.002 -0.01,0.001 -0.018,0.002 -0.028,0.002 -0.009,10e-4 -0.019,0.002 -0.027,0.003 h -0.002 c -0.008,0 -0.018,10e-4 -0.027,0.002 -0.008,0 -0.018,10e-4 -0.026,0.002 h -0.002 c -0.007,0.001 -0.017,0.002 -0.025,0.003 h -0.002 c -0.008,0 -0.018,0.001 -0.025,0.002 h -0.002 c -0.008,0 -0.018,0.002 -0.026,0.002 -0.01,0.001 -0.019,0.001 -0.027,0.002 -0.01,10e-4 -0.018,0.002 -0.027,0.003 -0.008,10e-4 -0.018,10e-4 -0.026,0.002 H -1.76 c -0.008,10e-4 -0.017,0.002 -0.025,0.003 -0.01,0 -0.018,10e-4 -0.026,10e-4 -0.009,0.001 -0.017,0.002 -0.027,0.003 -0.008,0.001 -0.017,0.002 -0.025,0.002 -0.008,0.001 -0.018,0.002 -0.026,0.003 -0.009,0.001 -0.017,0.002 -0.025,0.002 -0.01,10e-4 -0.018,0.002 -0.025,0.003 -0.01,0.001 -0.018,0.002 -0.026,0.002 h -0.002 l -0.023,0.003 c -0.01,10e-4 -0.018,0.002 -0.026,0.003 -0.007,0 -0.015,0.001 -0.025,0.002 l -0.023,0.003 c -0.01,0 -0.018,10e-4 -0.026,0.002 -0.008,10e-4 -0.015,0.002 -0.023,0.002 -0.01,0.001 -0.018,0.002 -0.026,0.003 l -0.023,0.003 c -0.008,10e-4 -0.016,10e-4 -0.024,0.002 l -0.023,0.003 -0.023,0.002 -0.131,0.014 0.086,0.099 c 0.007,0.008 0.013,0.014 0.019,0.022 0.008,0.008 0.014,0.016 0.022,0.023 0.007,0.007 0.013,0.015 0.021,0.023 0.008,0.008 0.014,0.015 0.022,0.023 0.007,0.007 0.013,0.015 0.021,0.023 0.008,0.007 0.016,0.015 0.024,0.022 0.007,0.008 0.015,0.015 0.023,0.023 l 0.023,0.023 c 0.008,0.008 0.016,0.016 0.026,0.024 0.008,0.007 0.015,0.014 0.023,0.022 0.008,0.008 0.018,0.015 0.026,0.023 0.007,0.008 0.017,0.015 0.025,0.023 0.01,0.008 0.018,0.016 0.027,0.024 0,0 0,-10e-4 0,0 0.008,0.006 0.018,0.015 0.026,0.022 0.01,0.008 0.019,0.016 0.027,0.023 l 0.029,0.023 c 0.008,0.008 0.018,0.016 0.028,0.022 0.01,0.008 0.019,0.016 0.027,0.024 0.01,0.007 0.02,0.015 0.029,0.022 0.01,0.007 0.02,0.015 0.03,0.023 0.009,0.008 0.019,0.014 0.029,0.022 0.012,0.007 0.021,0.015 0.031,0.023 0.01,0.007 0.02,0.014 0.03,0.021 h 0.001 c 0.01,0.008 0.02,0.016 0.032,0.023 0.01,0.007 0.019,0.015 0.031,0.022 0.01,0.007 0.021,0.015 0.031,0.022 0.012,0.007 0.022,0.014 0.033,0.022 0.01,0.007 0.022,0.015 0.032,0.022 0.011,0.007 0.021,0.014 0.033,0.021 0.012,0.007 0.023,0.015 0.033,0.022 0.012,0.007 0.024,0.014 0.035,0.021 0.012,0.007 0.024,0.015 0.033,0.021 h 0.002 c 0.012,0.007 0.022,0.014 0.034,0.021 0.011,0.008 0.023,0.015 0.035,0.021 l 0.035,0.021 0.035,0.02 c 0.014,0.007 0.025,0.014 0.037,0.021 0.012,0.007 0.024,0.014 0.037,0.02 0.012,0.006 0.024,0.013 0.035,0.02 0.014,0.007 0.026,0.014 0.04,0.02 0.011,0.006 0.023,0.013 0.037,0.019 0.011,0.007 0.023,0.014 0.037,0.02 0.011,0.006 0.025,0.012 0.037,0.019 h 0.002 l 0.037,0.019 c 0.014,0.007 0.025,0.012 0.039,0.018 0.014,0.007 0.027,0.013 0.039,0.019 0.014,0.007 0.027,0.013 0.039,0.018 0.014,0.006 0.027,0.013 0.041,0.018 0.014,0.007 0.026,0.012 0.039,0.018 0.014,0.005 0.028,0.012 0.041,0.018 0.014,0.005 0.028,0.011 0.041,0.017 0.014,0.005 0.028,0.011 0.041,0.017 0.014,0.005 0.026,0.01 0.041,0.016 0.014,0.006 0.028,0.012 0.041,0.016 0.014,0.006 0.028,0.011 0.041,0.017 0.014,0.005 0.03,0.011 0.043,0.016 0.014,0.006 0.028,0.01 0.041,0.015 0.016,0.005 0.03,0.01 0.043,0.015 0.014,0.005 0.03,0.01 0.043,0.015 0.016,0.005 0.029,0.01 0.043,0.015 0.016,0.005 0.029,0.009 0.043,0.014 0.016,0.005 0.029,0.01 0.045,0.014 0.014,0.004 0.029,0.009 0.043,0.013 0.016,0.005 0.029,0.009 0.045,0.014 0.012,0.003 0.021,0.007 0.033,0.01 h 0.002 c 0.012,0.004 0.022,0.007 0.035,0.01 0.012,0.003 0.024,0.006 0.035,0.01 L 0,-2.589 Z m -20.209,-60.093 c 0.1,0.256 0.512,0.24 0.59,-0.021 1.631,-5.444 4.789,-10.463 9.156,-14.067 C -7.5,-76.626 -3.98,-78.417 0,-79.243 v 1.752 c -0.111,0.129 -0.219,0.26 -0.322,0.394 -1.069,1.379 -1.836,3.09 -1.936,4.991 -0.099,1.898 0.463,3.98 2.057,6.099 0.064,0.088 0.131,0.174 0.201,0.26 v 37.15 c -3.533,-1.599 -7.629,-3.761 -11.014,-6.261 -3.248,-2.401 -5.836,-5.108 -6.611,-7.913 0.77,0.461 1.555,0.803 2.406,1.03 1.086,0.289 2.28,0.392 3.692,0.322 0.291,-0.016 0.359,-0.49 0.082,-0.578 -0.789,-0.25 -1.59,-0.565 -2.381,-0.94 -3.252,-1.544 -6.389,-4.13 -8.295,-7.597 -1.904,-3.463 -2.582,-7.813 -0.92,-12.891 0.266,-0.81 0.59,-1.638 0.978,-2.484 0.391,0.969 0.684,2.004 0.973,3.029 0.268,0.947 0.533,1.887 0.881,2.787 M 0,-65.747 c 1.977,2.5 5.408,5.045 10.898,7.383 0.801,0.418 2.577,1.322 4.188,2.761 1.607,1.436 3.072,3.415 3.289,6.004 0.023,0.289 0.51,0.342 0.604,0.065 0.41,-1.215 0.511,-2.502 0.39,-3.826 -0.098,-1.092 -0.346,-2.209 -0.693,-3.334 2.959,1.621 5.113,4.437 6.66,7.531 2.809,5.615 3.619,12.121 3.639,14.129 0.004,0.246 0.324,0.379 0.517,0.215 0.401,-0.348 0.817,-0.801 1.174,-1.368 0.066,-0.107 0.131,-0.218 0.193,-0.334 0.166,3.739 -0.213,6.958 -1.117,9.973 -1.015,3.38 -2.691,6.508 -4.998,9.826 -0.129,0.186 0.008,0.447 0.24,0.458 0.332,0.018 0.698,-0.049 1.102,-0.212 0.152,-0.06 0.31,-0.135 0.475,-0.225 -1.709,4.238 -3.975,6.843 -6.745,10.027 -0.293,0.336 -0.589,0.677 -0.836,0.962 -0.039,0.046 -0.076,0.191 -0.064,0.25 0.215,0.928 0.355,1.408 0.674,1.824 0.279,0.365 0.668,0.64 1.346,1.098 -0.918,0.951 -3.045,1.696 -5.416,2.204 C 12.398,0.332 8.891,0.576 7.119,0.345 7.988,-1.12 8.354,-2.628 8.396,-4.038 8.457,-6.013 7.881,-7.803 7.18,-9.018 7.031,-9.275 6.553,-9.118 6.602,-8.829 6.738,-7.994 7.033,-6.369 6.947,-4.611 6.865,-2.914 6.426,-1.082 5.139,0.282 3.58,0.452 1.822,0.318 0,0 v -2.589 l 0.018,0.006 c 0.011,0.003 0.023,0.005 0.035,0.009 0.011,0.003 0.023,0.007 0.035,0.009 0.012,0.002 0.023,0.005 0.037,0.008 l 0.035,0.009 c 0.012,0.003 0.024,0.006 0.037,0.008 l 0.035,0.009 c 0.012,0.003 0.024,0.005 0.038,0.008 0.011,0.002 0.023,0.004 0.035,0.007 h 0.002 c 0.011,0.002 0.023,0.005 0.035,0.007 0.013,0.003 0.025,0.005 0.037,0.008 0.012,0.002 0.025,0.004 0.037,0.006 0.012,0.003 0.025,0.005 0.037,0.007 0.012,0.002 0.024,0.004 0.037,0.006 0.012,0.003 0.026,0.003 0.037,0.005 0.012,0.002 0.026,0.004 0.037,0.006 0.012,0.002 0.026,0.004 0.038,0.006 0.013,0.002 0.025,0.003 0.037,0.005 0.013,0.002 0.025,0.003 0.037,0.005 h 0.002 c 0.011,10e-4 0.023,0.003 0.037,0.005 0.012,0.001 0.025,0.003 0.037,0.004 0.014,0.002 0.025,0.003 0.039,0.004 0.012,0.002 0.025,0.003 0.037,0.004 0.014,0 0.026,0.001 0.037,0.002 0.014,10e-4 0.026,0.003 0.039,0.004 0.014,10e-4 0.026,0.002 0.037,0.003 h 0.002 c 0.012,0 0.026,10e-4 0.037,0.002 0.014,10e-4 0.026,0.002 0.04,0.002 0.011,10e-4 0.025,0.002 0.037,0.003 0.013,0 0.027,0 0.039,0.001 0.013,0 0.025,10e-4 0.039,10e-4 0.011,0 0.025,10e-4 0.037,10e-4 h 0.002 c 0.012,0 0.025,0 0.037,10e-4 0.014,0 0.027,-10e-4 0.039,0 0.014,0 0.025,0 0.039,-10e-4 h 0.039 c 0.012,0 0.026,-10e-4 0.039,-10e-4 0.012,0 0.026,-10e-4 0.037,-10e-4 H 1.406 C 1.418,-2.422 1.432,-2.422 1.443,-2.423 1.457,-2.424 1.471,-2.424 1.482,-2.425 1.496,-2.426 1.51,-2.426 1.521,-2.427 1.535,-2.428 1.549,-2.429 1.561,-2.43 1.574,-2.431 1.588,-2.432 1.6,-2.433 1.613,-2.434 1.627,-2.435 1.639,-2.436 H 1.641 C 1.652,-2.438 1.666,-2.438 1.68,-2.439 1.691,-2.44 1.705,-2.442 1.719,-2.443 1.73,-2.445 1.744,-2.446 1.758,-2.448 1.77,-2.45 1.783,-2.451 1.795,-2.453 H 1.797 C 1.809,-2.455 1.822,-2.456 1.836,-2.458 1.848,-2.46 1.861,-2.462 1.875,-2.464 1.887,-2.466 1.9,-2.468 1.914,-2.47 1.928,-2.472 1.939,-2.474 1.953,-2.477 1.967,-2.479 1.979,-2.48 1.992,-2.482 2.006,-2.484 2.018,-2.487 2.031,-2.49 2.045,-2.492 2.059,-2.495 2.07,-2.498 H 2.072 C 2.084,-2.5 2.098,-2.503 2.109,-2.506 2.123,-2.508 2.137,-2.511 2.15,-2.514 2.162,-2.517 2.176,-2.52 2.189,-2.522 c 0.012,-0.003 0.026,-0.006 0.04,-0.009 0.013,-0.004 0.025,-0.007 0.039,-0.01 0.013,-0.003 0.027,-0.007 0.039,-0.01 L 2.361,-2.565 2.359,-2.619 c 0,-0.003 -0.002,-0.006 -0.002,-0.009 v -0.009 -0.009 c -0.002,-0.002 0,-0.005 -0.002,-0.008 v -0.01 c 0,-0.003 0,-0.006 -10e-4,-0.009 v -0.01 c -0.002,-0.003 0,-0.005 -0.002,-0.008 0,-0.004 0,-0.007 -0.002,-0.011 v -0.01 H 2.348 v -0.01 H 2.346 V -2.73 C 2.344,-2.734 2.344,-2.737 2.344,-2.741 H 2.342 c 0,-0.003 0,-0.007 -0.002,-0.01 0,-0.003 0,-0.007 -0.002,-0.01 0,-0.004 0,-0.007 -0.002,-0.01 0,-0.003 -0.002,-0.007 -0.002,-0.011 C 2.332,-2.785 2.332,-2.789 2.33,-2.793 2.33,-2.796 2.328,-2.8 2.328,-2.803 2.326,-2.807 2.326,-2.811 2.324,-2.813 2.324,-2.817 2.322,-2.821 2.322,-2.824 2.32,-2.828 2.32,-2.832 2.318,-2.835 2.318,-2.839 2.316,-2.843 2.314,-2.847 2.314,-2.85 2.313,-2.854 2.313,-2.856 2.311,-2.86 2.311,-2.864 2.309,-2.868 2.307,-2.872 2.307,-2.876 2.305,-2.879 2.303,-2.883 2.303,-2.887 2.301,-2.891 2.299,-2.895 2.299,-2.897 2.297,-2.901 2.297,-2.905 2.295,-2.909 2.293,-2.913 2.291,-2.917 2.291,-2.921 2.289,-2.924 2.287,-2.928 2.287,-2.932 2.285,-2.936 2.283,-2.939 2.283,-2.943 2.281,-2.947 L 2.275,-2.959 C 2.275,-2.963 2.273,-2.967 2.271,-2.971 2.27,-2.975 2.27,-2.979 2.268,-2.982 2.266,-2.985 2.264,-2.99 2.264,-2.994 L 2.258,-3.006 2.252,-3.018 C 2.252,-3.021 2.25,-3.025 2.248,-3.029 2.246,-3.033 2.244,-3.037 2.244,-3.041 H 2.242 C 2.24,-3.045 2.24,-3.049 2.238,-3.053 2.236,-3.057 2.234,-3.062 2.232,-3.065 2.23,-3.068 2.229,-3.073 2.227,-3.077 2.225,-3.081 2.225,-3.085 2.223,-3.089 L 2.217,-3.101 2.211,-3.112 C 2.209,-3.116 2.207,-3.121 2.205,-3.125 2.203,-3.129 2.201,-3.132 2.199,-3.137 L 2.193,-3.148 C 2.191,-3.152 2.189,-3.157 2.188,-3.161 L 2.182,-3.173 2.176,-3.185 C 2.174,-3.189 2.17,-3.193 2.168,-3.197 L 2.162,-3.209 C 2.16,-3.214 2.158,-3.218 2.156,-3.222 L 2.15,-3.233 C 2.148,-3.237 2.145,-3.241 2.143,-3.245 2.141,-3.249 2.139,-3.254 2.137,-3.257 2.135,-3.262 2.133,-3.266 2.131,-3.27 2.127,-3.273 2.125,-3.277 2.123,-3.281 2.121,-3.285 2.119,-3.29 2.117,-3.294 2.115,-3.298 2.111,-3.302 2.109,-3.306 L 2.104,-3.317 C 2.102,-3.321 2.1,-3.325 2.096,-3.329 L 2.09,-3.341 C 2.086,-3.345 2.084,-3.349 2.082,-3.353 L 2.076,-3.364 C 2.072,-3.368 2.07,-3.372 2.068,-3.376 2.066,-3.38 2.063,-3.383 2.061,-3.387 L 2.055,-3.398 C 2.053,-3.402 2.049,-3.406 2.047,-3.41 2.045,-3.414 2.043,-3.417 2.041,-3.421 H 2.039 L 2.033,-3.433 C 2.029,-3.437 2.027,-3.439 2.025,-3.443 2.023,-3.447 2.02,-3.451 2.018,-3.455 2.016,-3.459 2.014,-3.463 2.012,-3.466 H 2.01 L 2.004,-3.478 C 2,-3.481 1.998,-3.484 1.996,-3.488 1.992,-3.492 1.99,-3.496 1.988,-3.499 1.986,-3.503 1.982,-3.507 1.98,-3.51 1.979,-3.514 1.975,-3.518 1.973,-3.521 1.971,-3.525 1.969,-3.528 1.965,-3.532 1.963,-3.536 1.961,-3.54 1.957,-3.543 1.955,-3.547 1.953,-3.55 1.949,-3.554 1.947,-3.558 1.945,-3.562 1.941,-3.564 1.939,-3.568 1.936,-3.571 1.934,-3.575 1.932,-3.579 1.93,-3.582 1.926,-3.586 1.924,-3.59 1.922,-3.593 1.918,-3.596 1.916,-3.6 1.914,-3.604 1.91,-3.606 1.908,-3.61 1.904,-3.613 1.902,-3.617 1.9,-3.621 1.896,-3.624 1.895,-3.628 1.893,-3.631 1.889,-3.634 1.887,-3.638 1.885,-3.641 1.881,-3.645 1.879,-3.648 1.875,-3.651 1.873,-3.654 1.871,-3.658 1.867,-3.661 1.865,-3.665 1.863,-3.668 1.859,-3.671 1.857,-3.675 1.855,-3.678 H 1.854 C 1.852,-3.681 1.85,-3.685 1.846,-3.688 1.844,-3.69 1.842,-3.694 1.838,-3.697 1.836,-3.7 1.832,-3.704 1.83,-3.707 1.826,-3.71 1.824,-3.713 1.822,-3.717 1.818,-3.72 1.816,-3.723 1.813,-3.726 1.811,-3.729 1.809,-3.732 1.805,-3.735 1.803,-3.738 1.799,-3.741 1.797,-3.745 c 0,0 0,10e-4 0,0 C 1.795,-3.748 1.791,-3.751 1.789,-3.754 1.787,-3.757 1.783,-3.76 1.781,-3.763 H 1.779 C 1.777,-3.766 1.775,-3.769 1.771,-3.771 1.77,-3.774 1.768,-3.777 1.764,-3.78 1.762,-3.783 1.758,-3.786 1.756,-3.789 1.752,-3.792 1.75,-3.795 1.746,-3.798 1.744,-3.801 1.742,-3.803 1.738,-3.806 1.736,-3.809 1.732,-3.812 1.73,-3.814 1.727,-3.817 1.725,-3.819 1.723,-3.822 1.721,-3.825 1.717,-3.828 1.715,-3.831 1.711,-3.833 1.709,-3.836 1.705,-3.839 1.703,-3.842 1.699,-3.845 1.697,-3.847 c 0,0 0,10e-4 0,0 C 1.695,-3.849 1.691,-3.852 1.689,-3.854 1.686,-3.856 1.684,-3.859 1.682,-3.862 H 1.68 C 1.678,-3.864 1.676,-3.867 1.672,-3.869 1.67,-3.872 1.666,-3.874 1.664,-3.876 1.66,-3.879 1.658,-3.882 1.656,-3.884 1.652,-3.886 1.65,-3.889 1.646,-3.891 1.645,-3.893 1.641,-3.896 1.639,-3.897 1.637,-3.899 1.633,-3.902 1.631,-3.904 1.627,-3.906 1.625,-3.908 1.623,-3.911 1.619,-3.913 1.617,-3.915 1.615,-3.917 H 1.613 C 1.611,-3.92 1.609,-3.922 1.605,-3.924 1.604,-3.926 1.6,-3.928 1.598,-3.93 1.596,-3.932 1.592,-3.933 1.59,-3.936 L 1.564,-3.946 C 1.555,-3.948 1.545,-3.951 1.535,-3.954 1.525,-3.956 1.516,-3.958 1.504,-3.961 L 1.475,-3.967 C 1.465,-3.97 1.455,-3.972 1.443,-3.974 L 1.414,-3.979 H 1.412 C 1.402,-3.982 1.393,-3.984 1.383,-3.986 1.373,-3.988 1.363,-3.99 1.352,-3.992 L 1.322,-3.998 C 1.311,-4 1.301,-4.003 1.291,-4.004 1.281,-4.007 1.27,-4.008 1.26,-4.01 1.25,-4.012 1.24,-4.014 1.229,-4.016 1.219,-4.018 1.209,-4.02 1.199,-4.021 1.188,-4.022 1.178,-4.024 1.168,-4.026 H 1.166 C 1.156,-4.028 1.146,-4.03 1.137,-4.031 1.127,-4.033 1.115,-4.034 1.105,-4.036 1.096,-4.038 1.084,-4.039 1.074,-4.041 1.064,-4.042 1.053,-4.044 1.043,-4.046 1.031,-4.048 1.021,-4.049 1.012,-4.051 1,-4.052 0.99,-4.054 0.98,-4.055 0.969,-4.056 0.959,-4.058 0.949,-4.059 0.938,-4.061 0.928,-4.062 0.918,-4.063 0.906,-4.064 0.896,-4.066 0.887,-4.067 H 0.885 C 0.875,-4.068 0.865,-4.069 0.854,-4.071 0.844,-4.072 0.834,-4.073 0.822,-4.074 0.813,-4.076 0.801,-4.077 0.791,-4.078 0.781,-4.079 0.77,-4.081 0.76,-4.082 0.75,-4.083 0.738,-4.084 0.729,-4.085 0.717,-4.086 0.707,-4.088 0.697,-4.089 0.686,-4.09 0.676,-4.091 0.666,-4.092 H 0.664 C 0.654,-4.093 0.645,-4.094 0.633,-4.095 0.623,-4.096 0.611,-4.097 0.602,-4.098 0.592,-4.099 0.58,-4.1 0.57,-4.101 0.559,-4.102 0.549,-4.103 0.537,-4.103 0.527,-4.104 0.518,-4.105 0.506,-4.105 0.496,-4.106 0.484,-4.107 0.475,-4.108 0.463,-4.109 0.453,-4.109 0.443,-4.11 0.432,-4.111 0.422,-4.112 0.41,-4.113 0.4,-4.113 0.389,-4.114 0.379,-4.115 0.369,-4.116 0.357,-4.116 0.348,-4.117 0.336,-4.118 0.326,-4.118 0.316,-4.118 H 0.314 C 0.305,-4.119 0.293,-4.12 0.283,-4.121 0.273,-4.121 0.262,-4.122 0.252,-4.122 0.24,-4.123 0.23,-4.123 0.221,-4.124 H 0.219 C 0.209,-4.125 0.199,-4.125 0.188,-4.126 v 0.001 C 0.178,-4.126 0.166,-4.127 0.156,-4.127 0.146,-4.127 0.135,-4.128 0.125,-4.128 0.113,-4.129 0.104,-4.129 0.094,-4.129 H 0.092 C 0.082,-4.13 0.072,-4.13 0.061,-4.13 0.051,-4.131 0.039,-4.131 0.029,-4.131 L 0,-4.133 v -15.061 c 2.48,-0.076 4.992,-0.098 6.525,0.621 1.541,0.721 2.082,2.278 0.524,5.497 -0.131,0.268 0.342,0.537 0.527,0.3 2.928,-3.736 1.695,-5.996 -0.019,-7.296 -0.817,-0.619 -1.739,-1.009 -2.356,-1.236 0.666,-0.404 1.039,-0.976 1.184,-1.638 0.144,-0.664 0.049,-1.416 -0.217,-2.166 C 6.033,-25.487 5.855,-25.866 5.643,-26.233 5.625,-26.265 5.514,-26.356 5.479,-26.368 4.039,-26.876 2.121,-27.634 0,-28.597 Z m 0,-13.496 c 0.826,-0.172 1.672,-0.303 2.537,-0.389 -0.894,0.526 -1.777,1.254 -2.537,2.141 z"
         style="fill:#373535;fill-opacity:1;fill-rule:evenodd;stroke:none"
         id="path78"
         inkscape:connector-curvature="0" /></g><g
       id="g80"
       transform="translate(119.8193,426.2324)"
       clip-path="url(#clipPath11)"><path
         d="M 0,0 C -1.139,-0.147 -2.225,-0.489 -3.248,-0.811 -5.953,-1.663 -8.236,-2.381 -10,0.9 -10.023,0.94 -9.967,0.988 -9.926,0.962 -7.324,-0.771 -4.51,0.111 -1.992,0.9 0.174,1.579 2.123,2.19 3.553,1.031 3.572,1.015 3.574,0.98 3.559,0.962 3.496,0.893 3.023,0.791 2.43,0.664 1.578,0.481 0.471,0.243 0.018,0.006 0.018,0.005 0.002,0 0,0"
         style="fill:#373535;fill-opacity:1;fill-rule:evenodd;stroke:none"
         id="path82"
         inkscape:connector-curvature="0" /></g><g
       id="g88"
       transform="translate(101.4131,484.8975)"
       clip-path="url(#clipPath8)"><path
         d="m 0,0 c -3.334,0.717 -7.418,0.933 -11.365,0.793 -3.948,-0.139 -8.008,-0.642 -11.283,-1.592 -4.856,2.904 -5.475,8.5 -0.475,10.904 3.707,0.761 7.65,1.344 11.385,1.476 3.732,0.131 7.707,-0.173 11.459,-0.67 C 4.875,8.865 4.643,3.239 0,0"
         style="fill:#373535;fill-opacity:1;fill-rule:evenodd;stroke:none"
         id="path90"
         inkscape:connector-curvature="0" /></g><g
       id="g92"
       transform="translate(134.29,485.4678)"
       clip-path="url(#clipPath7)"><path
         d="m 0,0 c -3.861,0 -7.979,-0.469 -11.189,-1.462 10e-4,-0.13 0.007,-2.777 0.009,-5.356 3.741,0.105 7.469,0.155 11.18,0.155 3.713,0 7.439,-0.05 11.18,-0.155 0.004,2.578 0.008,5.226 0.009,5.356 C 7.98,-0.469 3.863,0 0,0"
         style="fill:#373535;fill-opacity:1;fill-rule:evenodd;stroke:none"
         id="path94"
         inkscape:connector-curvature="0" /></g><g
       id="g96"
       transform="translate(90.126,483.3984)"
       clip-path="url(#clipPath6)"><path
         d="m 0,0 c -3.859,-0.136 -7.957,-0.75 -11.131,-1.855 0.014,-0.265 0.143,-3.583 0.26,-6.743 7.379,1.159 14.812,2.036 22.266,2.67 -0.079,2.312 -0.159,4.663 -0.161,4.861 C 7.994,-0.188 3.861,0.136 0,0"
         style="fill:#373535;fill-opacity:1;fill-rule:evenodd;stroke:none"
         id="path98"
         inkscape:connector-curvature="0" /></g><g
       id="g100"
       transform="translate(167.1689,484.8975)"
       clip-path="url(#clipPath5)"><path
         d="m 0,0 c 3.332,0.717 7.418,0.933 11.365,0.793 3.948,-0.139 8.008,-0.642 11.281,-1.592 4.856,2.904 5.477,8.5 0.477,10.904 -3.709,0.761 -7.652,1.344 -11.385,1.476 C 8.004,11.712 4.031,11.408 0.277,10.911 -4.875,8.865 -4.643,3.239 0,0"
         style="fill:#373535;fill-opacity:1;fill-rule:evenodd;stroke:none"
         id="path102"
         inkscape:connector-curvature="0" /></g><g
       id="g104"
       transform="translate(178.4541,483.3984)"
       clip-path="url(#clipPath4)"><path
         d="m 0,0 c 3.859,-0.136 7.959,-0.75 11.133,-1.855 -0.014,-0.258 -0.137,-3.414 -0.252,-6.499 -7.379,1.16 -14.813,2.038 -22.268,2.67 0.076,2.232 0.151,4.426 0.155,4.617 C -7.992,-0.188 -3.859,0.136 0,0"
         style="fill:#373535;fill-opacity:1;fill-rule:evenodd;stroke:none"
         id="path106"
         inkscape:connector-curvature="0" /></g><g
       id="g108"
       transform="translate(134.292,293.5635)"
       clip-path="url(#clipPath3)"><path
         d="M 0,0 -0.002,0.002 -0.004,0 -0.119,0.182 c -3.584,5.605 -3.983,10.925 -4.36,15.968 -0.011,0.145 -0.021,1.082 -0.031,2.321 3.018,0.027 6.024,0.015 9.016,-0.03 C 4.494,17.219 4.484,16.293 4.475,16.15 4.098,11.107 3.699,5.787 0.115,0.182 Z"
         style="fill:#373535;fill-opacity:1;fill-rule:evenodd;stroke:none"
         id="path110"
         inkscape:connector-curvature="0" /></g><g
       id="g112"
       transform="translate(96.3818,291.3818)"
       clip-path="url(#clipPath2)"><path
         d="M 0,0 V 0.002 L -0.002,0 -0.123,0.18 c -3.777,5.474 -4.359,10.777 -4.91,15.804 -0.016,0.139 -0.055,1.026 -0.106,2.209 2.996,0.364 5.994,0.682 8.991,0.961 C 3.891,17.66 3.922,16.463 3.914,16.299 3.713,11.246 3.498,5.914 0.109,0.188 Z"
         style="fill:#373535;fill-opacity:1;fill-rule:evenodd;stroke:none"
         id="path114"
         inkscape:connector-curvature="0" /></g><g
       id="g116"
       transform="translate(172.1982,291.3818)"
       clip-path="url(#clipPath1)"><path
         d="M 0,0 -0.002,0.002 V 0 l -0.109,0.188 c -3.389,5.726 -3.604,11.058 -3.807,16.111 -0.006,0.158 0.023,1.275 0.061,2.691 3.025,-0.287 6.021,-0.611 8.986,-0.967 C 5.082,16.926 5.045,16.115 5.031,15.984 4.48,10.957 3.898,5.654 0.121,0.18 Z"
         style="fill:#373535;fill-opacity:1;fill-rule:evenodd;stroke:none"
         id="path118"
         inkscape:connector-curvature="0" /></g><text
       xml:space="preserve"
       style="font-size:21.3333px;line-height:0%;font-family:Consolas;-inkscape-font-specification:Consolas;text-align:center;text-anchor:middle;fill:#ffffff;stroke:#000000;stroke-width:1.6;stroke-linecap:square"
       id="text34"
       transform="matrix(-1,0,0,1,272.45442,7.9082301)"><textPath
         xlink:href="#path36"
         startOffset="50%"
         id="textPath36"><tspan
           id="tspan34"
           style="font-style:normal;font-variant:normal;font-weight:bold;font-stretch:normal;font-size:21.3333px;font-family:Arial;-inkscape-font-specification:'Arial Bold';fill:#ffffff;stroke:none;stroke-width:1.6">LAC-UFPE</tspan></textPath></text><path
       style="fill:none;fill-opacity:1;stroke:none;stroke-width:1.6;stroke-linecap:square"
       d="M 212.4325,307.20754 C 150.26252,319.53093 118.91046,317.78879 65.166875,306.8341"
       id="path36" /><g
       id="g49"
       transform="translate(134.2451,500.2539)"
       clip-path="url(#clipPath26)"><path
         d="m 0,0 c -3.918,-0.027 -16.395,2.261 -16.461,10.521 -0.025,3.141 2.606,6.091 4.172,8.797 9.654,12.937 15.102,18.867 8.269,30.936 2.125,-0.371 5.366,-3.343 7.041,-5.519 C 5.984,39.642 6.264,34.336 4.363,28.445 2.361,23.542 -4.191,17.416 -2.133,11.791 -0.209,6.534 6.512,6.116 4.326,11.64 c -1.127,2.85 -2.521,3.131 -1.64,6.423 1.418,5.301 8.246,12.013 5.253,18.395 6.885,-3.926 2.661,-14.629 3.309,-16.497 0.363,-1.553 5.68,-6.275 5.283,-9.477 C 15.559,2.637 6.443,-0.358 0,0"
         style="fill:#a3333b;fill-opacity:1;fill-rule:evenodd;stroke:none"
         id="path48"
         inkscape:connector-curvature="0" /></g><g
       id="g50"
       transform="translate(90.3291,498.2061)"
       clip-path="url(#clipPath25)"><path
         d="m 0,0 c -3.916,-0.026 -16.395,2.261 -16.461,10.521 -0.025,3.141 2.607,6.091 4.172,8.797 9.654,12.938 15.102,18.867 8.271,30.937 2.123,-0.372 5.364,-3.343 7.041,-5.519 C 5.984,39.642 6.264,34.336 4.365,28.445 2.363,23.542 -4.189,17.416 -2.131,11.791 -0.207,6.534 6.512,6.117 4.328,11.64 3.199,14.491 1.805,14.771 2.686,18.063 4.104,23.364 10.932,30.076 7.941,36.458 14.824,32.533 10.6,21.829 11.25,19.962 11.611,18.409 16.928,13.687 16.531,10.484 15.561,2.638 6.443,-0.358 0,0"
         style="fill:#a3333b;fill-opacity:1;fill-rule:evenodd;stroke:none"
         id="path49"
         inkscape:connector-curvature="0" /></g><g
       id="g51"
       transform="translate(178.1611,498.2061)"
       clip-path="url(#clipPath23)"><path
         d="m 0,0 c -3.918,-0.026 -16.396,2.261 -16.463,10.521 -0.023,3.141 2.608,6.091 4.172,8.797 9.654,12.938 15.104,18.867 8.271,30.937 2.124,-0.372 5.364,-3.343 7.041,-5.519 C 5.982,39.642 6.262,34.336 4.363,28.445 2.361,23.542 -4.191,17.416 -2.133,11.791 -0.209,6.534 6.51,6.117 4.326,11.64 c -1.127,2.851 -2.521,3.131 -1.642,6.423 1.418,5.301 8.246,12.013 5.255,18.395 6.883,-3.925 2.659,-14.629 3.309,-16.496 0.361,-1.553 5.678,-6.275 5.281,-9.478 C 15.559,2.638 6.443,-0.358 0,0"
         style="fill:#a3333b;fill-opacity:1;fill-rule:evenodd;stroke:none"
         id="path51"
         inkscape:connector-curvature="0" /></g><g
       id="g54"
       transform="translate(145.6201,486.5684)"
       clip-path="url(#clipPath21)"><path
         d="m 0,0 c -3.305,0.834 -7.381,1.193 -11.33,1.193 -3.949,0 -8.025,-0.359 -11.33,-1.193 -4.752,3.073 -5.18,8.688 -0.1,10.914 3.735,0.629 7.696,1.073 11.43,1.073 3.736,0 7.697,-0.444 11.43,-1.073 C 5.18,8.688 4.754,3.073 0,0"
         style="fill:#373535;fill-opacity:1;fill-rule:evenodd;stroke:none"
         id="path53"
         inkscape:connector-curvature="0" /></g><g
       id="g61"
       transform="translate(99.2432,390.4541)"
       clip-path="url(#clipPath15)"><path
         d="m 0,0 c 1.078,-0.627 2.631,-1.514 3.531,-2.201 0.096,-0.072 0.178,-0.135 0.248,-0.19 0.514,1.586 1.145,2.871 1.867,3.922 0.739,1.071 1.575,1.897 2.479,2.545 0.271,1.57 0.658,2.705 0.932,3.82 0.252,1.034 1.672,3.325 2.752,4.469 -0.473,0.229 -1.438,0.281 -2.151,0.385 C 7.01,13.139 3.127,14.201 1.527,15.238 1.305,12.672 1.035,10.162 0.768,7.65 0.496,5.127 0.225,2.602 0,0"
         style="fill:#373535;fill-opacity:1;fill-rule:evenodd;stroke:none"
         id="path60"
         inkscape:connector-curvature="0" /></g><g
       id="g69"
       transform="translate(101.4131,484.8975)"
       clip-path="url(#clipPath8)"><path
         d="m 0,0 c -3.334,0.717 -7.418,0.933 -11.365,0.793 -3.948,-0.139 -8.008,-0.642 -11.283,-1.592 -4.856,2.904 -5.475,8.5 -0.475,10.904 3.707,0.761 7.65,1.344 11.385,1.476 3.732,0.131 7.707,-0.173 11.459,-0.67 C 4.875,8.865 4.643,3.239 0,0"
         style="fill:#373535;fill-opacity:1;fill-rule:evenodd;stroke:none"
         id="path68"
         inkscape:connector-curvature="0" /></g><g
       id="g70"
       transform="translate(134.29,485.4678)"
       clip-path="url(#clipPath7)"><path
         d="m 0,0 c -3.861,0 -7.979,-0.469 -11.189,-1.462 10e-4,-0.13 0.007,-2.777 0.009,-5.356 3.741,0.105 7.469,0.155 11.18,0.155 3.713,0 7.439,-0.05 11.18,-0.155 0.004,2.578 0.008,5.226 0.009,5.356 C 7.98,-0.469 3.863,0 0,0"
         style="fill:#373535;fill-opacity:1;fill-rule:evenodd;stroke:none"
         id="path69"
         inkscape:connector-curvature="0" /></g><g
       id="g71"
       transform="translate(90.126,483.3984)"
       clip-path="url(#clipPath6)"><path
         d="m 0,0 c -3.859,-0.136 -7.957,-0.75 -11.131,-1.855 0.014,-0.265 0.143,-3.583 0.26,-6.743 7.379,1.159 14.812,2.036 22.266,2.67 -0.079,2.312 -0.159,4.663 -0.161,4.861 C 7.994,-0.188 3.861,0.136 0,0"
         style="fill:#373535;fill-opacity:1;fill-rule:evenodd;stroke:none"
         id="path71"
         inkscape:connector-curvature="0" /></g><g
       id="g73"
       transform="translate(167.1689,484.8975)"
       clip-path="url(#clipPath5)"><path
         d="m 0,0 c 3.332,0.717 7.418,0.933 11.365,0.793 3.948,-0.139 8.008,-0.642 11.281,-1.592 4.856,2.904 5.477,8.5 0.477,10.904 -3.709,0.761 -7.652,1.344 -11.385,1.476 C 8.004,11.712 4.031,11.408 0.277,10.911 -4.875,8.865 -4.643,3.239 0,0"
         style="fill:#373535;fill-opacity:1;fill-rule:evenodd;stroke:none"
         id="path72"
         inkscape:connector-curvature="0" /></g><g
       id="g74"
       transform="translate(178.4541,483.3984)"
       clip-path="url(#clipPath4)"><path
         d="m 0,0 c 3.859,-0.136 7.959,-0.75 11.133,-1.855 -0.014,-0.258 -0.137,-3.414 -0.252,-6.499 -7.379,1.16 -14.813,2.038 -22.268,2.67 0.076,2.232 0.151,4.426 0.155,4.617 C -7.992,-0.188 -3.859,0.136 0,0"
         style="fill:#373535;fill-opacity:1;fill-rule:evenodd;stroke:none"
         id="path73"
         inkscape:connector-curvature="0" /></g><g
       id="g75"
       transform="translate(134.292,293.5635)"
       clip-path="url(#clipPath3)"><path
         d="M 0,0 -0.002,0.002 -0.004,0 -0.119,0.182 c -3.584,5.605 -3.983,10.925 -4.36,15.968 -0.011,0.145 -0.021,1.082 -0.031,2.321 3.018,0.027 6.024,0.015 9.016,-0.03 C 4.494,17.219 4.484,16.293 4.475,16.15 4.098,11.107 3.699,5.787 0.115,0.182 Z"
         style="fill:#373535;fill-opacity:1;fill-rule:evenodd;stroke:none"
         id="path75"
         inkscape:connector-curvature="0" /></g><g
       id="g77"
       transform="translate(96.3818,291.3818)"
       clip-path="url(#clipPath2)"><path
         d="M 0,0 V 0.002 L -0.002,0 -0.123,0.18 c -3.777,5.474 -4.359,10.777 -4.91,15.804 -0.016,0.139 -0.055,1.026 -0.106,2.209 2.996,0.364 5.994,0.682 8.991,0.961 C 3.891,17.66 3.922,16.463 3.914,16.299 3.713,11.246 3.498,5.914 0.109,0.188 Z"
         style="fill:#373535;fill-opacity:1;fill-rule:evenodd;stroke:none"
         id="path76"
         inkscape:connector-curvature="0" /></g><g
       id="g78"
       transform="translate(172.1982,291.3818)"
       clip-path="url(#clipPath1)"><path
         d="M 0,0 -0.002,0.002 V 0 l -0.109,0.188 c -3.389,5.726 -3.604,11.058 -3.807,16.111 -0.006,0.158 0.023,1.275 0.061,2.691 3.025,-0.287 6.021,-0.611 8.986,-0.967 C 5.082,16.926 5.045,16.115 5.031,15.984 4.48,10.957 3.898,5.654 0.121,0.18 Z"
         style="fill:#373535;fill-opacity:1;fill-rule:evenodd;stroke:none"
         id="path77"
         inkscape:connector-curvature="0" /></g><text
       xml:space="preserve"
       style="font-size:21.3333px;line-height:0%;font-family:Consolas;-inkscape-font-specification:Consolas;text-align:center;text-anchor:middle;fill:#ffffff;stroke:#000000;stroke-width:1.6;stroke-linecap:square"
       id="text78"
       transform="matrix(-1,0,0,1,272.45442,7.9082301)"><textPath
         xlink:href="#path36"
         startOffset="50%"
         id="textPath78"><tspan
           id="tspan78"
           style="font-style:normal;font-variant:normal;font-weight:bold;font-stretch:normal;font-size:21.3333px;font-family:Arial;-inkscape-font-specification:'Arial Bold';fill:#ffffff;stroke:none;stroke-width:1.6">LAC-UFPE</tspan></textPath></text><path
       style="fill:none;fill-opacity:1;stroke:none;stroke-width:1.6;stroke-linecap:square"
       d="M 212.4325,307.20754 C 150.26252,319.53093 118.91046,317.78879 65.166875,306.8341"
       id="path79" /></g></svg>
